/* XPM */
static char *_fbade5507164c09a7f3f180cd56da62[] = {
/* columns rows colors chars-per-pixel */
"64 64 234 2 ",
"   c None",
".  c #000000",
"X  c #0A0307",
"o  c #1B0D0D",
"O  c #160206",
"+  c #0B0D13",
"@  c #1D0A11",
"#  c #171619",
"$  c #17120F",
"%  c #2C000B",
"&  c #270008",
"*  c #33000C",
"=  c #3D000A",
"-  c #270417",
";  c #31031B",
":  c #2B1D15",
">  c #261717",
",  c #2A1813",
"<  c #24221E",
"1  c #3D2B1C",
"2  c #37241B",
"3  c #1B1D22",
"4  c #3B0926",
"5  c #221E29",
"6  c #1E2227",
"7  c #142333",
"8  c #222223",
"9  c #26292C",
"0  c #2B2B2C",
"q  c #282728",
"w  c #3A2A24",
"e  c #2B2C30",
"r  c #333334",
"t  c #393B3B",
"y  c #35322D",
"u  c #4C0E14",
"i  c #432E1D",
"p  c #4C2B1C",
"a  c #562C19",
"s  c #45311E",
"d  c #4B321F",
"f  c #59351E",
"g  c #430B2A",
"h  c #57193A",
"j  c #4B1333",
"k  c #432A22",
"l  c #463220",
"z  c #4C3422",
"x  c #4D3A26",
"c  c #513623",
"v  c #5E3423",
"b  c #543B24",
"n  c #5B3E24",
"m  c #5A3E29",
"M  c #5A3329",
"N  c #543630",
"B  c #623421",
"V  c #663C25",
"C  c #693D25",
"Z  c #6A3E29",
"A  c #64372B",
"S  c #703F2B",
"D  c #61341F",
"F  c #5E412A",
"G  c #5F4126",
"H  c #55473B",
"J  c #43423C",
"K  c #64442C",
"L  c #6C412A",
"P  c #6B4A2E",
"I  c #674529",
"U  c #73452C",
"Y  c #79462D",
"T  c #734B2D",
"R  c #7B4A2E",
"E  c #724427",
"W  c #76512E",
"Q  c #6E4D31",
"!  c #63453A",
"~  c #724E32",
"^  c #7C4C31",
"/  c #764333",
"(  c #745133",
")  c #7B5335",
"_  c #7A5638",
"`  c #6F5632",
"'  c #7A623B",
"]  c #393C41",
"[  c #681F42",
"{  c #563C47",
"}  c #74274A",
"|  c #652245",
" . c #2E4960",
".. c #4C4C46",
"X. c #484946",
"o. c #5B4548",
"O. c #5E4251",
"+. c #614B4D",
"@. c #64524A",
"#. c #654A57",
"$. c #6D535C",
"%. c #6B5753",
"&. c #745A5C",
"*. c #735642",
"=. c #76615A",
"-. c #7D6145",
";. c #795E65",
":. c #735862",
">. c #74556D",
",. c #5D636D",
"<. c #7D6563",
"1. c #824C2E",
"2. c #834E32",
"3. c #894B35",
"4. c #855133",
"5. c #8C5335",
"6. c #8B5636",
"7. c #925536",
"8. c #9C5C36",
"9. c #925638",
"0. c #965939",
"q. c #9C5D3B",
"w. c #985737",
"e. c #8A522E",
"r. c #A15F3C",
"t. c #A15E37",
"y. c #9A663D",
"u. c #8D6239",
"i. c #A4613D",
"p. c #AA643E",
"a. c #B46A3D",
"s. c #B56A3D",
"d. c #BE723F",
"f. c #8F3454",
"g. c #B33C5D",
"h. c #A73759",
"j. c #BA3F61",
"k. c #967B48",
"l. c #8B755B",
"z. c #8E7051",
"x. c #A66541",
"c. c #AC6641",
"v. c #AE6943",
"b. c #B46A44",
"n. c #B96D46",
"m. c #B36A44",
"M. c #BD7142",
"N. c #BC734A",
"B. c #B87349",
"V. c #AA7747",
"C. c #BA4465",
"Z. c #A94462",
"A. c #846967",
"S. c #937C66",
"D. c #8B726B",
"F. c #A07C6F",
"G. c #C1754C",
"H. c #C37A4E",
"J. c #C87744",
"K. c #D27E49",
"L. c #D27D47",
"P. c #C97E52",
"I. c #C57D51",
"U. c #9E814C",
"Y. c #A3844D",
"T. c #A9894F",
"R. c #A68952",
"E. c #A68C5D",
"W. c #A98E5E",
"Q. c #A78952",
"!. c #BA824E",
"~. c #9A856A",
"^. c #98856A",
"/. c #A78D60",
"(. c #A88E61",
"). c #A7896B",
"_. c #A48778",
"`. c #B49A7A",
"'. c #B79777",
"]. c #AD926F",
"[. c #BCA27F",
"{. c #DB824C",
"}. c #CA8354",
"|. c #EB8D52",
" X c #F99658",
".X c #E78B51",
"XX c #D1AD7B",
"oX c #FFA562",
"OX c #FFA15F",
"+X c #71748A",
"@X c #7275A3",
"#X c #887191",
"$X c #8F7DA5",
"%X c #779CB5",
"&X c #888E97",
"*X c #B09385",
"=X c #9294B1",
"-X c #8CA6B6",
";X c #ABA9B5",
":X c #B09997",
">X c #C3A582",
",X c #CBAB85",
"<X c #C9AB86",
"1X c #D4B48C",
"2X c #D9B78A",
"3X c #DEBA91",
"4X c #D0AF88",
"5X c #E2BD93",
"6X c #E4C094",
"7X c #E7D394",
"8X c #E4DCB9",
"9X c #9B99C1",
"0X c #B4BCCA",
"qX c #A5B3C9",
"wX c #C4BDCC",
"eX c #B6C2CC",
"rX c #BCC4CD",
"tX c #ADC3D9",
"yX c #BBCAD5",
"uX c #C4CED6",
"iX c #CCCFDE",
"pX c #C9D5DD",
"aX c #D5D3CF",
"sX c #E8E6D0",
"dX c #C6D8E5",
"fX c #D2DCE4",
"gX c #D4D8E2",
"hX c #D7E2EC",
"jX c #DAE9F2",
"kX c #E6ECF3",
"lX c #EBF2F7",
"zX c #FEFEFE",
"xX c #F5F8FA",
"cX c #E2E8ED",
/* pixels */
"                                                  6.0.q.r.r.q.q.y.p.M.                                                          ",
"                                            5.9.q.q.r.r.r.p.p.i.p.p.i.q.i.M.K.                                                  ",
"                                      ^ 9.9.0.q.r.r.x.r.x.x.c.p.p.i.i.r ] ..........X.r                                         ",
"                                    4.5.9.0.q.r.r.i.i.x.p.c.c.p.p.r X.X.................J                                       ",
"                  9             / 4.6.9.0.q.q.q.r.x.c.c.i.c.x.0 ] ] t t r 8 > 8 8 < w y x t 0                                   ",
"                9 9 9         U 3.6.9.0.q.q.q.x.i.x.x.x.i.i.0 ] t e > $ M M A A S 3.8.s.# q w                                   ",
"              e 9 q e r     C 2.4.6.0.0.q.q.r.r.i.x.x.x.i.e ] r 8 k a q.t.8.q.w.1.3.3.8.a.L. X                                  ",
"              3 + 3 9 r   p U 2.6.9.0.0.0.x.r.r.i.i.x.r.9 r 5 @ 7.r.i.t.i.p.i.i.i.8.w.3.0.a.L. X                                ",
"              # X   3 e e f U 2.5.9.0.q.q.y.r.r.r.p.r.3 0 < S r.r.p.p.a.p.a.a.c.p.p.t.t.w.t.s.L. X                              ",
"              +       3 0 a U 2.5.0.0.q.q.r.r.i.p.i.3 8 > w.r.r.a.b.b.b.b.b.b.p.b.p.p.t.t.t.p.d..X                              ",
"                      # 8 3 E 2.5.w.0.q.r.r.r.x.r.# 5 # 0.r.r.m.b.c.b.b.b.b.b.b.b.p.b.p.p.t.w.s.J..X                            ",
"                    V m # 8 V 2.9.5.q.r.r.r.x.x.> q # w.r.x.x.c.p.b.b.b.b.b.b.b.b.b.b.s.s.p.t.r.s.J.|.                          ",
"                    V V # 8 a R 5.4.q.c.q.i.p.3 q + fXcXdX7.r.x.c.b.b.b.b.b.b.n.n.b.m.m.c.c.p.t.p.d.L. X                        ",
"                  Z C C a # 3 Y 5.9.x.c.w.q.8 # @XxXzXzX. + *Xr.r.m.b.b.b.b.n.b.n.b.m.m.c.c.p.r.t.p.J.{.OX                      ",
"                  Z Z B qX=X# > v w.x.2.8 # @XzXzXzXzX. xX,.+ 9.c.c.b.p.n.b.n.b.b.b.G.s.b.m.c.p.t.p.s.J..X                      ",
"                L Z Z 0XpXdX# 9 + 4.w.. 3.lXzXzXzXzXlX3 &X9 . dXp.m.m.m.b.b.b.n.b.b.s.b.b.s.c.p.p.t.p.d.L. X                    ",
"                L E =XpXhXt uX. w.a a q.uXxXzXzXzXzX&Xq ] 6 . jXr.b.c.b.b.m.b.G.b.n.n.b.b.b.b.r.p.i.8.a.J.{. X                  ",
"                L Y eXpXhX# 8  .5.w.r.7.lXxXzXzXzXzXzX. t . ,.jXw.c.c.b.c.b.b.b.b.n.b.b.b.b.b.m.p.p.t.i.s.J..X X                ",
"              L E ! rXfX7 3 + -X5.q.r.eXkXzXzXzXzXzXzX. . . zXhXr.b.c.b.b.b.b.b.b.b.n.b.b.b.m.p.p.p.i.t.t.d.L..XoX              ",
"              L T qXuXhX7 . . E 7.y.r.uXlXzXzXzXzXzXzXzXzXzXzXdXr.c.c.b.c.b.b.b.n.b.n.n.b.b.m.c.m.p.p.p.i.p.d.L.|.oX            ",
"            L U U 0XuXfXhX+XgX1.9.r.r.pXlXxXxXzXzXzXzXzXzXzXxXdXp.p.c.c.a.m.b.b.n.b.b.n.n.b.b.m.m.p.p.p.i.i.p.d.{..XoX          ",
"            L R C eXuXgXhXfXtX4.0.r.x.eXlXxXxXzXzXzXzXzXzXzXjXw.p.p.c.m.b.b.b.b.b.n.b.n.n.n.n.m.b.b.m.p.p.i.i.p.d.{.|.OX        ",
"          L R 2.B eXuXpXhXpX/ 4.q.i.i.w.fXxXxXxXzXzXzXzXzXlXdXr.c.c.c.m.b.b.b.s.G.b.G.b.n.n.n.b.b.m.m.c.p.p.i.i.p.d.}.|.oX      ",
"          U ^ 4.D eXuXpXpXyX1.9.r.x.p.x.yXjXxXzXzXzXzXzXlXdXr.p.c.c.c.c.b.b.b.G.b.b.G.G.N.n.n.n.n.n.m.a.m.p.p.i.i.p.M.{. X      ",
"        L Y 2.4.B 0XuXuXuXC 5.q.i.x.p.c.c.yXfXkXlXlXkXdX;Xr.p.c.c.c.c.m.m.m.m.N.N.N.I.G.G.G.G.G.n.n.n.b.b.c.c.p.i.i.s.J..X X    ",
"      L U 2.4.4.2.qX0XeX-X5.w.i.i.x.x.c.c.m.p._.yXyX0.x.x.c.c.c.c.c.c.c.c.m.m.N.N.N.I.H.I.H.P.P.G.G.n.n.b.b.c.p.i.i.t.s.J.|.oX  ",
"      L ^ 2.4.4.2.%X-X*.2.5.q.i.x.i.i.c.i.x.p.m.m.m.m.v.v.v.c.c.c.c.i.c.v.v.m.N.B.}.I.}.P.P.P.P.H.G.G.n.n.b.c.c.p.i.t.p.M.{. X  ",
"    L Y 2.2.2.2.R R R Y 4.5.7.w.w.q.w.w.q.q.q.q.q.r.r.i.i.x.r.r.r.r.r.r.x.x.v.m.N.I.N.}.P.}.P.P.P.H.G.n.b.b.b.c.i.i.i.t.a.J.|.  ",
"  T L ^ ^ 2.R R U U U ^ R R R Y / 1.R Y R Y Y R 3.^ 2.3.5.9.7.5.7.0.9.w.9.q.z.c.B.B.N.}.P.P.P.}.P.H.G.N.m.m.m.c.p.p.i.r.i.d.{. X",
"  ~ U ^ ^ ^ ~ U U U L E U L Z L Z Z C C C B D D v v v v f f B B v B xXY 3.6.9.q.x.V.B.N.N.I.I.}.H.H.N.M.m.m.v.c.x.p.r.8.y.p.L. X",
"  ^ ~ ^ U U U L L Z Z Z C C % % * * * * % & O O . . . . . . . . O O cXzXa a 3.3.9.x.B.N.N.N.N.I.N.N.N.n.n.m.c.c.p.i.t.8.e.t.J. X",
") ^ ~ Y U L L Z V C B % * * * = * * * % % % & O @ @ @ ; g g g g g +XdXxXzX& @ S 6.x.v.V.B.N.B.N.N.m.B.m.c.c.c.x.x.r.8.8.w.7.d.|.",
") ~ / / L n tX9Xu * * * * * * * * % % - - ; ; @ 4 j [ [ [ } } [ h #XwXkXxXsX& X 0.r.v.v.v.m.m.m.m.V.v.c.x.x.p.r.r.q.w.7.5.7.p.|.",
"4.^ ~ P A j tXqX$X* * * ; * * * % % - 5 4 j h | } f.h.g.g.g.g.h.f.#X;XiXkXxXaXr.c.c.v.v.v.v.v.v.v.x.x.x.r.r.r.q.0.w.7.4.1.e.a. X",
") ~ U Z c & tXqX9X=X* * * * % % % 4 4 | | } f.C.C.C.j.j.j.g.g.g.h.A.$X0XwXp.p.c.c.v.v.v.v.v.x.x.x.q.q.q.q.0.7.7.5.4.2.1.Y 1.a.  ",
"^ U U Z M = 0XqX9X$X& % % & & & g h | f.Z.C.C.C.C.C.j.g.1.3.7.0.w.t.r.a.p.b.c.c.v.x.x.x.x.r.q.q.q.q.9.9.7.5.5.4.2.R Y U E 1.d.  ",
"^ P U A M u qXqX=X$X>.% & & & ; L R 1.5.9.w.0.0.q.q.q.q.r.x.x.c.c.v.c.c.c.c.x.r.x.r.r.q.q.q.q.7.9.5.4.3.2.^ Y Y E E L C E e.    ",
"  ~ L S A A S Y 3.1.2.6.5.6.5.5.5.7.7.7.0.0.0.0.q.q.q.q.r.r.r.r.r.r.i.i.r.r.r.r.q.q.q.0.7.5.5.5.3.^ ^ U U E Z C C I B V E       ",
"  / P U ^ Y ^ ^ 4.3.4.5.5.5.5.5.5.5.5.5.9.5.9.5.5.5.5.9.9.9.w.0.0.q.0.0.0.q.q.w.w.9.9.5.2.2.1.Y / Z Z Z V V V V V C V           ",
"    P Z L L L E R ^ ^ 2.R 2.4.2.4.2.4.4.2.2.2.2.2.2.2.2.2.4.2.4.4.3.6.3.6.4.3.6.2.2.^ Y U L Z C Z V V V C C V V                 ",
"      U L L L Z L L L U U U U U Y Y U Y ~ R R Y ~ Y Y Y Y ^ ^ ^ ^ ^ ^ ^ 3./ ^ / L Z Z Z Z Z C C C                               ",
"      L U L L L L Z L C L C L L L L L L L Z L L L L L L L L L L U Z Z C A S Z L Z Z { &.                                        ",
"          U L L L Z L Z L L Z Z K C L L L L L L L L L L L L L K L L Z Z { { { { { { #.$.>X                                      ",
"            U U U U L E L L L L L L L L L L Z L L L L N N { { { { { O.O.{ #.#.{ $.#.$.$.F.8X                                    ",
"                                          x J H H o.H o.o.O.O.o.#.#.#.#.#.$.$.$.:.$.$.:.A.>X                                    ",
"                    X X X X O X           H H H ..@.@.@.%.%.%.$.%.$.$.$.:.$.:.>.>.>.>.A.A.F.sX                                  ",
"                $ o o o o - @ @ @ o o O H H @.@.%.%.%.%.&.&.<.&.;.;.<.;.;.<.<.D.F.,X5X5X,XF.7X                                  ",
"            < : : : > : > > > > > > > o > , @.%.=.=.=.=.<.<.<.<.<.<.<.A._.*X5X5X5X6X5X5X,X].3X                                  ",
"          2 2 2 2 q 2 w 1 k w k k w 1 2 : : > : %.&.=.A.=.D.A.<.<.^.*X<X1X3X5X5X5X5X5X3X4X].XX                                  ",
"          1 1 1 s b F F F K K P ! F K K A A z k w @.=.A.D.D.D.].<X<X4X1X1X3X3X5X5X5X5X3X,X].XX                                  ",
"        s s i s z c b F F F K P P Q Q ` Q Q ! b z 2 f =.D._.`.>X<X<X4X1X1X1X2X3X5X3X2X,X'.).2Xi d d f T                         ",
"        l d s i s i s z m F K K P Q Q Q ( Q Q P m z 1 z ~.`.>X>X>X<X<X<X4X1X1X1X1X4X>X'.).V.s s d d b f f W                     ",
"          z Y.Y.Y.Y.Y.k.k.1 b F K K P Q Q ( ( Q K m z w L `.`.>X>X>X>X>X<X<X<X<X>X'.).F.z.i p f G n n n n f f W                 ",
"          z T.T.W.(.(././.E.U.i x F F I Q P ( Q Q K m k w 0.`.`.`.`.`.`.`.].].~.S.z.u.i d b f G G I K G G I G n ` y.            ",
"            T.T.W.(.W.(.(.(.(.E.Y.l x F F P P ( Q I m c k K ~.~.^.^.^.^.S.l.l.z.` 2 1 d b n F K I I P P P Q T P I W y.          ",
"              T.W.(.(.(.(.W.(.(.(.W.U.1 z F F K P ! K x z z ~.~.^.^.^.^.S.-.+ o 1 s f b n m K K I P Q ~ ( _ _ ) W W 6.!.        ",
"                ` T.W.W.(.W.(.(.(.E./.E.k.k z x F K m m z d k.~.        o , : 1 s d b n F F K P P P Q ~ ( _ _ _ ` W T u.        ",
"                    R.(.(.W.(.W.(.(./.E.(.E.k.k z b b x z d 6.          2 : 2 1 s d d n n F F I I Q Q Q Q ~ ~ ( T W W ) }.      ",
"                      z R.W.(.(.W.(.W.(.W.(.E.U.1 l z c z b             2 2 2 1 s d z b b F F I P P Q Q Q ( Q ( ` W P W T.      ",
"                          l U.W.(.(.(.(.(.(./.E.R.' 1 s i z               1 1 1 1 s s c b b F F K K P P Q Q Q Q P P ~ W V.      ",
"                                U.Q.(./.(.(.W.E.R.k.1 1 1                     s s 1 1 s z b b F m F K P P P P P P P I T V.      ",
"                                    s Y.R.R.R.R.Y.k.w 2                           l s s s l z b b m m F F K F F F G G P         ",
"                                                                                        s s s s z z x b x b b b x b b           ",
"                                                                                              z l l i 1 s i i i s               "
};
